<?xml version="1.0" encoding="utf-8"?>
<svg fill="#fff" version="1.1" xmlns="http://www.w3.org/2000/svg" xmlns:xlink="http://www.w3.org/1999/xlink" x="0px" y="0px" viewBox="0 0 1000 1000" enable-background="new 0 0 1000 1000" xml:space="preserve">
<g><g transform="translate(0.000000,512.000000) scale(0.100000,-0.100000)"><path d="M4742.3,4995.8c-551.7-118.8-967.4-632.2-967.4-1197.3c0-364,191.6-741.4,490.4-967.4l122.6-92v-695.4v-695.4h-680.1c-749,0-969.3-17.2-1285.4-95.8C1142.7,930.7,230.9-138.3,112.1-1460.1C-35.4-3101.8,1184.9-4584.6,2832.4-4760.8c272-28.7,4065.1-28.7,4337.1,0c1107.3,118.8,2084.3,852.5,2500,1877.4c706.9,1739.5-273.9,3680-2090,4136c-316.1,78.5-536.4,95.8-1285.4,95.8h-680.1v695.4v695.4l122.6,92c300.8,226.1,490.4,603.4,490.4,969.3c0,53.6-13.4,164.7-30.6,245.2C6060.3,4710.3,5408.9,5135.6,4742.3,4995.8z M7152.2,93.5c381.2-67.1,701.2-233.7,982.7-515.3c281.6-281.6,448.3-601.5,515.3-982.8c55.6-316.1,24.9-639.8-86.2-950.2c-174.3-480.8-605.3-911.9-1086.2-1086.2c-323.7-116.9-295-114.9-2477-114.9c-2182,0-2153.2-1.9-2477,114.9c-480.8,174.3-911.9,605.3-1086.2,1086.2c-385.1,1065.1,251,2203,1360.1,2440.6c151.3,30.6,310.3,34.5,2176.2,34.5C6679,122.3,7014.3,118.4,7152.2,93.5z"/><path d="M3016.3-1121c-91.9-23-254.8-118.8-306.5-180.1c-107.3-126.4-149.4-243.3-149.4-406.1c-1.9-136,5.7-168.6,61.3-281.6c105.4-216.5,293.1-329.5,540.2-331.4c114.9,0,164.8,9.6,251,49.8c224.1,105.4,352.5,306.5,352.5,553.6c-1.9,245.2-116.9,434.9-325.7,538.3C3309.4-1115.3,3133.1-1090.4,3016.3-1121z"/><path d="M6694.4-1121c-92-23-254.8-118.8-306.5-180.1c-107.3-126.4-149.4-243.3-149.4-406.1c-1.9-136,5.8-168.6,61.3-281.6c105.4-216.5,293.1-329.5,540.2-331.4c114.9,0,164.7,9.6,250.9,49.8c224.1,105.4,352.5,306.5,352.5,553.6c-1.9,245.2-116.9,434.9-325.7,538.3C6987.5-1115.3,6811.2-1090.4,6694.4-1121z"/></g></g>
</svg>